<?xml version="1.0" encoding="iso-8859-1"?>
<!-- Generator: Adobe Illustrator 16.0.0, SVG Export Plug-In . SVG Version: 6.00 Build 0)  -->
<!DOCTYPE svg PUBLIC "-//W3C//DTD SVG 1.1//EN" "http://www.w3.org/Graphics/SVG/1.1/DTD/svg11.dtd">
<svg version="1.1" id="Capa_1" xmlns="http://www.w3.org/2000/svg" xmlns:xlink="http://www.w3.org/1999/xlink" x="0px" y="0px"
	 width="557.328px" height="557.328px" viewBox="0 0 557.328 557.328" style="enable-background:new 0 0 557.328 557.328;"
	 xml:space="preserve">
<g>
	<g>
		<path d="M552.229,492.517c-13.086-9.073-24.17-20.265-34.604-32.207c-8.037-9.196-14.703-19.335-21.477-29.441
			c-4.328-6.459-9.082-12.647-13.836-18.805c-4.014-5.198-8.289-10.196-12.488-15.251c-5.74-6.92-11.469-13.852-17.287-20.706
			c-3.762-4.431-7.598-8.812-11.555-13.072c-3.154-3.398-6.352-6.813-9.895-9.779c-2.646-2.216-5.805-3.864-8.869-5.521
			c-3.338-1.804-6.842-3.293-10.244-4.978c-4.133-2.044-8.258-4.104-12.348-6.238c-4.58-2.392-9.109-4.88-13.68-7.3
			c-4.227-2.239-8.498-4.39-12.705-6.671c-5.613-3.043-11.199-6.148-16.768-9.273c-4.824-2.705-9.643-5.427-14.398-8.245
			c-2.078-1.232-3.986-2.746-5.99-4.109c-1.787-1.216-3.598-2.398-5.406-3.606c1.301-1.615,2.559-2.909,3.492-4.398
			c1.412-2.256,1.91-4.712,0.49-7.205c-0.168-0.294-0.424-0.657-0.697-0.865c-4.455-7.368-10.877-12.697-18.74-16.312
			c-4.488-2.064-9.168-3.701-13.957-4.904c-1.918-1.126-3.896-2.281-5.912-3.37c-3.465-1.876-6.699-3.941-9.074-7.234
			c-0.938-1.301-2.477-2.167-4.002-3.452c0.012,0.033-0.041-0.583-0.371-0.816c-1.408-1.003-2.869-1.938-4.395-2.934
			c-0.399-0.812-1.032-1.285-1.836-1.697c-0.408-0.208-0.816-0.42-1.228-0.628c-0.229-0.212-0.473-0.424-0.718-0.649
			c-1.759-1.587-3.231-3.505-4.757-5.336c-3.28-3.933-6.688-7.772-9.731-11.885c-4.215-5.691-8.291-11.498-12.158-17.43
			c-5.757-8.833-11.546-17.667-16.83-26.785c-5.708-9.857-10.763-20.094-16.295-30.058c-1.334-2.403-3.358-4.447-5.202-6.536
			c-1.983-2.24-4.035-4.439-6.226-6.475c-3.46-3.215-6.908-6.479-10.632-9.368c-8.397-6.512-16.022-13.917-24.227-20.641
			c-5.166-4.231-10.192-8.674-15.651-12.493c-9.164-6.41-18.584-12.444-27.964-18.543c-8.376-5.447-16.288-11.485-23.713-18.16
			c-5.475-4.921-10.958-9.841-16.291-14.917c-3.913-3.725-7.622-7.67-11.363-11.571c-5.104-5.32-10.147-10.698-15.243-16.026
			c-0.522-0.547-1.224-0.926-1.844-1.383c-0.175,0.09-0.351,0.175-0.526,0.265c0.135,0.849,0.11,1.763,0.429,2.534
			c2.371,5.745,4.435,11.689,8.445,16.561c3.248,3.945,6.491,7.964,10.233,11.412c5.646,5.198,11.722,9.931,17.613,14.863
			c0.326,0.273,0.612,0.587,0.738,1.175c-0.437-0.171-0.914-0.282-1.31-0.526c-8.09-5.019-16.234-9.955-24.235-15.121
			c-6.589-4.251-13.043-8.719-19.478-13.199c-4.255-2.962-8.287-6.25-12.583-9.147c-5.01-3.378-10.188-6.508-15.32-9.694
			c-0.795-0.494-1.763-0.718-3.109-1.249c0.237,0.987,0.237,1.566,0.494,1.991c3.088,5.125,6.397,10.029,10.873,14.158
			c4.452,4.108,9.343,7.564,14.28,11c4.435,3.084,8.805,6.263,13.276,9.298c2.281,1.551,4.7,2.897,7.083,4.292
			c3.766,2.207,7.54,4.406,11.338,6.557c1.089,0.616,2.277,1.061,3.387,1.652c-2.62-1.028-5.275-1.967-7.846-3.113
			c-4.427-1.975-8.792-4.076-13.187-6.124c-7.005-3.26-13.925-6.728-21.036-9.731c-9.825-4.141-19.788-7.952-29.715-11.844
			c-1.163-0.457-2.468-0.576-3.725-0.735c-0.449-0.057-0.938,0.225-1.412,0.351c0.151,0.522,0.159,1.167,0.481,1.546
			c0.738,0.873,1.591,1.661,2.464,2.407c6.426,5.492,13.668,9.612,21.33,13.142c6.373,2.938,12.518,6.356,18.813,9.458
			c2.163,1.065,4.488,1.799,6.736,2.685c-0.041,0.163-0.086,0.322-0.131,0.485c-0.445-0.106-0.897-0.184-1.33-0.314
			c-10.587-3.24-21.13-6.63-31.779-9.657c-4.578-1.302-9.363-1.918-14.076-2.701C1.938,47.772,0.942,48.311,0,48.536
			c0.498,0.792,0.873,1.709,1.526,2.342c0.816,0.792,1.82,1.408,2.807,1.995c10.383,6.161,21.722,10.155,32.889,14.553
			c2.432,0.959,4.868,1.918,7.303,2.873c-0.053,0.192-0.106,0.383-0.163,0.575c-0.971-0.175-1.938-0.347-2.909-0.522
			c-6.006-1.069-11.999-2.208-18.025-3.162c-1.318-0.208-2.75,0.151-4.104,0.383c-0.546,0.094-1.028,0.547-1.917,1.049
			c1.583,1.269,2.729,2.562,4.166,3.272c6.459,3.203,12.995,6.238,19.507,9.335c0.281,0.135,0.551,0.306,0.914,0.506
			c-1.599,0.424-3.043,0.808-4.704,1.249c3.917,5.32,9.168,8.283,14.325,11.322c1.224,0.722,2.799,0.816,4.125,1.399
			c0.906,0.4,1.657,1.146,2.48,1.742c-1.477,1.917-1.199,3.28,0.637,4.916c3.778,3.37,8.209,5.643,12.607,8.034
			c1.494,0.812,2.387,2.701,3.619,4.031c1.106,1.195,2.269,2.346,3.484,3.431c1.016,0.91,2.146,1.697,3.227,2.542
			c-2.574,3.04-1.326,4.921,0.812,6.671c1.473,1.204,2.901,2.469,4.443,3.574c2.215,1.591,4.908,2.118,7.434,1.746
			c0.212-0.032,0.412-0.049,0.608-0.061c1.33,3.19,4.088,5.716,7.401,6.716c1.746,1.926,3.827,3.574,4.737,6.173
			c0.42,1.204,0.661,2.285,0.477,3.623c-0.188,1.371,0.625,2.868,0.494,4.264c-0.249,2.668,1.906,2.664,3.375,3.468
			c0.404,0.22,0.828,0.408,1.256,0.579c1.75,0.71,2.526,1.938,1.967,3.807c-0.334,1.11-0.282,1.999,0.792,2.701
			c1.505,0.983,2.962,2.048,4.451,3.06c0.951,0.645,1.893,1.302,2.893,1.861c0.628,0.351,1.347,0.702,2.044,0.742
			c1.24,0.074,1.697,0.702,1.514,1.792c-0.249,1.485,0.22,2.546,1.216,3.696c0.628,0.726,0.799,2.073,0.747,3.121
			c-0.18,3.533,0.775,4.823,4.194,5.777c1.575,0.44,3.08,1.188,3.651,3.056c0.555,1.824,1.493,3.19,3.721,3.525
			c1.987,0.298,2.974,1.995,2.909,3.913c-0.073,2.187,1.42,3.395,2.615,4.7c1.065,1.167,1.587,2.044,0.987,3.697
			c-0.824,2.276,0.498,4.377,1.249,6.467c0.098,0.273,0.992,0.261,1.616,0.408c-0.877,1.559-0.326,2.403,1.342,3.105
			c1.669,0.702,3.125,1.746,3.55,3.896c0.575,2.913,2.501,4.631,5.557,4.965c0.546,0.061,1.061,0.396,1.787,0.681
			c-0.873,0.343-1.53,0.604-2.187,0.861c0.016,0.159,0.033,0.318,0.049,0.478c0.738-0.024,1.493-0.155,2.208-0.045
			c0.742,0.114,1.444,0.469,2.166,0.718c-0.306,0.555-0.575,1.138-0.93,1.656c-0.29,0.424-0.718,0.755-1.024,1.171
			c-0.853,1.159-0.171,2.966,1.228,3.264c0.277,0.061,0.575,0.024,0.865,0.037c3.766,0.171,3.672,0.167,3.459,3.99
			c-0.224,3.994,1.208,7.585,3.292,10.894c0.355,0.563,1.42,0.637,2.077,1.065c0.616,0.404,1.269,0.89,1.636,1.501
			c0.587,0.979,1.016,2.064,1.404,3.146c0.506,1.412,0.865,2.611,2.839,2.856c0.767,0.094,1.375,2.016,1.934,3.167
			c0.987,2.04,1.885,4.125,2.819,6.189c0.253,0.555,0.624,1.085,0.743,1.665c0.461,2.317,1.554,3.435,3.807,3.667
			c1.322,0.135,2.276,0.502,3.345,1.6c1.298,1.33,3.439,1.832,5.202,2.717c0.979,0.49,1.955,1.003,2.901,1.554
			c2.118,1.229,4.198,2.518,6.332,3.717c1.514,0.849,2.142,2.285,1.84,4.235c-0.237,1.53-0.947,2.909-0.592,4.663
			c0.188,0.914-1.351,2.179-2.342,3.632c-0.388-2.094-1.489-3.007-2.962-2.428c-2.628,1.036-5.427,0.677-8.066,1.392
			c-2.362,0.64-4.721,1.293-7.083,1.938c-0.11,0.032-0.229,0.118-0.33,0.098c-4.187-0.783-8.124,0.841-12.183,1.273
			c-4.806,0.51-9.592,1.203-14.394,1.767c-5.794,0.677-11.604,1.232-17.381,1.991c-2.55-1.021-5.585,0.514-6.561,2.994
			c-1.077,2.738,0.355,5.573,2.933,6.744c0.849,0.384,1.702,0.771,2.55,1.155c0.804,4.398,4.529,7.857,8.817,8.629
			c-0.587,0.384-1.151,0.792-1.661,1.248c-0.833,0.743-2.048,1.747-1.134,3.093c0.853,1.257,1.885,2.579,3.786,1.734
			c0.747,0.873,0.114,3.35,1.844,2.33c2.75,1.366,5.059,2.517,7.454,3.704c0.241,2.289,1.094,3.052,4.631,3.733
			c1.297,0.249,2.632,0.33,3.954,0.408c1.31,0.077,2.627,0.057,4.227,0.081c-0.4,0.547-0.682,1.135-1.134,1.518
			c-2.256,1.906-2.317,3.762-0.143,5.704c0.522,0.465,1.057,0.938,1.498,1.478c1.534,1.876,1.522,1.889,3.423,1.868
			c0.286,0.624,0.392,1.428,0.792,1.62c1.575,0.763,3.06,2.04,5.055,1.272c0.253-0.098,0.767,0.004,0.918,0.2
			c0.702,0.897,1.171,2.04,2.016,2.746c0.755,0.628,1.877,0.853,2.868,1.154c0.417,0.127,1.004,0.146,1.359-0.053
			c2.142-1.236,4.508-0.159,6.708-0.71c0.134-0.033,0.306,0.094,0.559,0.175c-0.388,0.392-0.722,0.727-1.416,1.416
			c2.832,0.51,5.202,1.473,7.785,0.506c0.461-0.171,1.012-0.473,1.424-0.359c1.591,0.445,3.142,1.033,4.676,1.555
			c-0.282,0.18-0.734,0.461-1.453,0.91c1.95,1.44,3.974,1.897,6.12,2.061c0.775,0.057,1.571,0.098,2.313,0.302
			c1.914,0.526,3.941-0.135,5.304-2.023c4.517-6.271,9.168-12.457,13.37-18.932c1.763-2.713,3.97-4.104,6.871-4.513
			c4.834-0.681,9.343-2.248,13.753-4.251c0.894-0.408,1.787-0.645,2.991,0.037c1.306,0.742,3.093,0.648,4.651,0.913
			c-0.547,1.682,0.738,2.864,1.526,4.231c0.229,0.396,0.6,0.991,0.457,1.281c-0.979,2.011,0.298,3.713,0.689,5.512
			c0.082,0.38,0.702,0.689,1.13,0.942c0.992,0.584,2.028,1.086,3.02,1.669c1.436,0.849,2.207,2.036,2.281,3.803
			c0.028,0.657,0.754,1.66,1.362,1.844c1.844,0.56,2.514,1.905,3.122,3.497c0.232,0.607,0.787,1.317,1.367,1.538
			c4.406,1.685,8.841,3.305,13.296,4.851c1.342,0.466,2.791,0.608,4.182,0.943c0.471,0.113,1.232,0.293,1.303,0.579
			c0.447,1.881,2.105,1.991,3.463,2.443c1.723,0.575,3.484,0.935,3.68,3.269c0.029,0.354,0.797,0.767,1.295,0.946
			c1.676,0.608,3.406,1.061,5.066,1.706c0.51,0.195,0.891,0.783,1.277,1.235c0.686,0.809,1.184,1.881,2.023,2.432
			c3.51,2.298,7.287,3.889,11.615,3.57c0.568-0.041,1.123-0.229,1.82-0.379c0.037,0.583,0.066,1.122,0.102,1.688
			c0.498,0.082,0.98,0.163,1.58,0.262c-0.152,0.526-0.27,0.946-0.381,1.334c0.557,1.105,2.637,1.004,5.035-0.266
			c-0.35,1.106-0.379,1.938,1.123,1.787c1.709-0.175,2.557,0.485,2.557,2.228c0,1.905,1.479,2.632,2.674,3.183
			c0.734,0.339,2.125-0.33,3.027-0.865c0.91-0.538,1.582-1.473,2.496-2.362c0.547,2.212-1.268,3.334-2.271,4.872
			c0.664,0.44,1.137,0.946,1.705,1.098c1.432,0.379,2.938,0.514,3.121,2.505c0.012,0.135,1.432,0.416,2.004,0.176
			c1.971-0.829,3.654-0.702,4.361,1.313c1.031,2.945,4.111,3.921,5.418,6.499c0.252,0.502,1.139,0.689,1.836,1.081
			c-0.213,0.155-0.449,0.335-0.689,0.498c-0.975,0.653-0.787,1.261,0.188,1.571c2.701,0.853,5.332,2.104,8.326,1.379
			c0.385-0.094,1.209,0.428,1.385,0.849c1.133,2.726,3.084,4.459,5.854,5.418c0.465,0.159,0.898,0.845,1.061,1.371
			c0.576,1.873,0.891,3.835,1.572,5.663c0.412,1.098,1.301,2.02,2.016,2.994c0.551,0.755,1.023,1.645,1.754,2.163
			c1.918,1.358,4.17,1.117,6.344,0.881c0.895-0.094,1.742-0.587,2.637-0.677c0.586-0.062,1.334,0.109,1.803,0.457
			c1.574,1.166,3.061,2.456,4.578,3.704c0.127,0.106,0.301,0.229,0.334,0.371c0.832,3.554,4.512,4.382,6.496,6.822
			c0.84,1.032,1.395,2.293,2.186,3.37c0.344,0.465,0.988,0.693,1.457,1.073c0.502,0.407,1.191,0.783,1.404,1.325
			c1.607,4.207,3.875,7.993,7.238,10.983c1.738,1.547,3.488,3.093,5.977,3.754c1.221,0.322,2.057,2.171,3.016,3.37
			c2.068,2.595,3.924,5.386,6.213,7.769c1.633,1.697,3.645,3.333,6.455,2.415c0.262-0.086,0.771,0.18,0.982,0.433
			c0.4,0.481,0.828,1.036,0.967,1.624c1.09,4.663,4.949,7.372,7.609,10.922c0.131,0.176,0.355,0.396,0.539,0.404
			c1.551,0.057,2.775,0.759,3.93,1.729c0.27,0.229,0.959,0.281,1.256,0.098c1.641-1.02,2.143,0.245,2.727,1.294
			c0.219,0.392,0.312,0.869,0.402,1.321c0.752,3.889,3.207,6.912,5.305,10.07c1.742,2.623,3.885,4.989,5.924,7.404
			c0.723,0.854,1.66,1.519,2.885,2.611c0.734-1.591,1.445-3.133,2.293-4.974c0.828,1.579,1.529,3.052,2.346,4.46
			c2.4,4.141,4.732,8.323,7.32,12.342c1.031,1.604,2.594,2.905,4.084,4.137c0.289,0.237,1.77-0.302,2.008-0.808
			c0.514-1.105,0.885-2.443,0.787-3.647c-0.408-5.047-1.008-10.081-1.539-15.12c-0.031-0.322-0.082-0.645-0.162-1.298
			c1.236,2.645,2.395,4.893,3.35,7.226c1.346,3.289,2.615,6.618,3.789,9.972c2.775,7.911,6.99,15.112,10.928,22.452
			c0.537,1,1.338,1.877,2.129,2.701c0.158,0.163,1.139-0.065,1.207-0.281c0.295-0.922,0.494-1.905,0.531-2.872
			c0.262-6.279-0.67-12.452-2.117-18.512c-1.982-8.294-4.297-16.512-6.475-24.761c-0.25-0.942-0.52-1.877-0.441-2.95
			c1.203,2.681,2.395,5.365,3.611,8.042c3.883,8.547,7.605,17.177,11.738,25.605c2.395,4.884,5.051,9.702,8.795,13.767
			c1.787,1.938,3.604,3.852,5.477,5.851c1.281-0.987,1.496-2.244,1.215-3.578c-0.645-3.044-1.084-6.169-2.125-9.078
			c-3.275-9.172-6.68-18.303-10.254-27.36c-2.834-7.189-5.996-14.248-9.012-21.367c-0.098-0.236-0.172-0.485,0.023-0.853
			c0.609,1.269,1.201,2.546,1.824,3.807c5.811,11.795,12.154,23.292,19.613,34.129c3.373,4.904,7.539,9.106,12.701,12.224
			c1.514,0.914,2.934,1.987,4.398,2.986c0.162-0.069,0.322-0.139,0.484-0.208c-0.195-0.812-0.229-1.713-0.615-2.423
			c-3.99-7.345-7.943-14.705-12.086-21.963c-5.74-10.065-11.631-20.045-17.457-30.062c-4.031-6.928-8.059-13.859-12.082-20.792
			c-0.195-0.338-0.363-0.697-0.252-1.236c1.195,1.714,2.334,3.473,3.598,5.133c2.289,3.016,4.518,6.092,7.018,8.928
			c3.533,4.006,7.227,7.891,10.992,11.685c1.648,1.661,3.607,3.023,5.492,4.431c4.773,3.559,10.031,6.096,15.871,7.397
			c1.627,0.363,3.215,0.897,4.842,1.265c0.479,0.106,1.029-0.098,1.543-0.159c-0.24-0.489-0.355-1.13-0.738-1.437
			C555.174,494.549,553.697,493.537,552.229,492.517z M329.627,296.999c-0.742-0.967-1.637-1.607-1.672-2.297
			c-0.062-1.098,1.59-1.713,3.414-1.379C330.848,294.429,330.346,295.485,329.627,296.999z"/>
	</g>
</g>
<g>
</g>
<g>
</g>
<g>
</g>
<g>
</g>
<g>
</g>
<g>
</g>
<g>
</g>
<g>
</g>
<g>
</g>
<g>
</g>
<g>
</g>
<g>
</g>
<g>
</g>
<g>
</g>
<g>
</g>
</svg>
